<svg width="35" height="35" viewBox="0 0 35 35" xmlns="http://www.w3.org/2000/svg">
  <path d="M24.3473 8.48018C22.3629 6.96782 19.9919 6.16852 17.4907 6.16852C11.2476 6.16852 6.16846 11.2477 6.16846 17.4907C6.16846 23.7338 11.2476 28.8129 17.4907 28.8129C20.5149 28.8129 23.3582 27.6353 25.4966 25.4967C25.7746 25.2187 25.7746 24.768 25.4966 24.49C25.2187 24.212 24.7678 24.212 24.4899 24.49C22.6204 26.3596 20.1346 27.3892 17.4907 27.3892C12.0327 27.3892 7.59219 22.9488 7.59219 17.4907C7.59219 12.0326 12.0326 7.59225 17.4907 7.59225C21.8679 7.59225 25.7771 10.5245 26.9971 14.7232C27.1068 15.1008 27.5017 15.3178 27.8794 15.2081C28.2569 15.0984 28.474 14.7034 28.3643 14.3259C27.6942 12.0196 26.2676 9.94342 24.3473 8.48018Z" />
  <path d="M25.8375 15.3362C25.5594 15.0582 25.1087 15.0582 24.8308 15.3362C24.5528 15.6142 24.5528 16.0649 24.8308 16.3429L27.5086 19.0208C27.6421 19.1543 27.8231 19.2292 28.012 19.2292C28.2009 19.2292 28.3819 19.1543 28.5154 19.0208L31.1932 16.3429C31.4712 16.0649 31.4712 15.6142 31.1932 15.3362C30.9151 15.0582 30.4644 15.0582 30.1865 15.3362L28.012 17.5107L25.8375 15.3362Z" />
</svg>
