<svg width="35" height="35" viewBox="0 0 35 35" xmlns="http://www.w3.org/2000/svg">
  <path d="M17.4906 0C17.0976 0 16.7788 0.318797 16.7788 0.711864C16.7788 1.10493 17.0976 1.42373 17.4906 1.42373C26.3499 1.42373 33.5575 8.63136 33.5575 17.4906C33.5575 26.3499 26.3499 33.5575 17.4906 33.5575C8.63136 33.5575 1.42373 26.35 1.42373 17.4906C1.42373 11.463 4.75075 5.99378 10.1065 3.21715C10.4555 3.03622 10.5917 2.60661 10.4108 2.25756C10.2298 1.90851 9.80012 1.77231 9.45119 1.95324C3.62149 4.97558 0 10.9293 0 17.4906C0 27.1351 7.84629 34.9813 17.4906 34.9813C27.135 34.9813 34.9813 27.135 34.9813 17.4906C34.9813 7.84629 27.1351 0 17.4906 0Z" />
</svg>
